:SAMPLES-PER-SECOND 30
:FULLY-SPECIFIED
:DEGREES
1
root  -65.6259 40.9662 5.04924 134.854 87.9511 134.257
RightUpLeg  -2.30189 -6.15889 -2.48604
RightLeg  6.07109 10.4183 -0.421439
RightFoot  -3.1744 0.0287758 -0.809639
RightToes  3.49245e-010 0 -3.6325e-017
Spine  -1.3148 0.79748 2.93383
Spine1  5.71252 1.39815 -2.66131
HEad  -20.0131 -2.45787 -2.95106
LeftShoulder1  -0.552973 4.92673 -32.5384
LeftArm  7.40605 6.9019 -41.9755
LeftForeArm  28.2447 -15.6068 -7.33177
LeftHand  -0.0441365 7.4368 0.277822
RightShoulder  -0.924696 -6.09763 29.0763
RightArm  16.0309 -2.79574 47.6238
RightForeArm  18.7364 12.9505 6.14663
RightHand  0.132107 3.64235 1.44224
LeftUpLeg  1.78326 5.70814 1.08638
LeftLeg  2.34934 2.58082 0.508105
LeftFoot  -2.43357 -0.112879 1.77203
LeftToes  -5.6298e-010 8.41567e-011 -1.83319e-011
2
root  -65.6074 40.9662 5.04783 133.857 87.9893 133.236
RightUpLeg  -2.30794 -6.1212 -2.46595
RightLeg  6.08776 10.443 -0.450474
RightFoot  -3.20093 0.0266355 -0.776387
RightToes  3.49245e-010 0 -3.6325e-017
Spine  -1.37269 0.847681 2.87767
Spine1  5.78548 1.42701 -2.55276
HEad  -20.2294 -2.53492 -3.21102
LeftShoulder1  -0.552973 4.9225 -32.5671
LeftArm  7.19376 6.87302 -42.0631
LeftForeArm  28.4328 -15.5159 -7.35982
LeftHand  -0.0400025 7.22072 0.146868
RightShoulder  -0.933785 -6.1287 29.0045
RightArm  15.8774 -2.71474 47.7062
RightForeArm  18.7747 12.7652 6.1868
RightHand  0.137962 3.99003 1.4394
LeftUpLeg  1.79074 5.74856 1.10823
LeftLeg  2.36627 2.57573 0.474403
LeftFoot  -2.46752 -0.116548 1.82908
LeftToes  -5.6298e-010 8.41567e-011 -1.83319e-011
3
root  -65.5721 40.9662 5.04588 133.531 87.9847 132.943
RightUpLeg  -2.21 -6.11982 -2.47723
RightLeg  6.07327 10.4292 -0.474798
RightFoot  -3.26917 0.0237371 -0.731358
RightToes  3.49245e-010 0 -3.6325e-017
Spine  -1.50259 0.863315 2.97723
Spine1  6.02577 1.46988 -2.66768
HEad  -20.2107 -2.47846 -3.1545
LeftShoulder1  -0.549552 4.92751 -32.5355
LeftArm  7.05897 6.80463 -42.2029
LeftForeArm  28.4129 -15.4048 -7.41707
LeftHand  -0.0356072 7.0751 0.147188
RightShoulder  -0.94681 -6.17188 28.921
RightArm  15.9098 -2.72474 47.8189
RightForeArm  18.7264 12.8185 6.17393
RightHand  0.129624 3.35027 1.47391
LeftUpLeg  1.94699 5.77522 1.11343
LeftLeg  2.24392 2.57453 0.446091
LeftFoot  -2.4761 -0.117555 1.84473
LeftToes  -5.6298e-010 8.41567e-011 -1.83319e-011
4
root  -65.5411 40.9662 5.05233 133.701 88.057 133.059
RightUpLeg  -2.20326 -6.0533 -2.3949
RightLeg  6.0252 10.4109 -0.497533
RightFoot  -3.24722 0.0258952 -0.764885
RightToes  3.49245e-010 0 -3.6325e-017
Spine  -1.5747 0.892133 2.97356
Spine1  6.01621 1.48365 -2.61446
HEad  -20.1346 -2.44175 -3.05861
LeftShoulder1  -0.541795 4.90065 -32.6395
LeftArm  7.27261 6.85498 -42.1356
LeftForeArm  28.1409 -15.4585 -7.4154
LeftHand  -0.037185 7.45545 0.181412
RightShoulder  -0.960741 -6.19945 29.0789
RightArm  16.1122 -2.66946 47.6678
RightForeArm  18.2094 12.8488 6.22329
RightHand  0.0839521 3.70895 0.832336
LeftUpLeg  1.96215 5.85649 1.21411
LeftLeg  2.21506 2.51356 0.402286
LeftFoot  -2.52539 -0.111689 1.75353
LeftToes  -5.6298e-010 8.41567e-011 -1.83319e-011
5
root  -65.5194 40.9662 5.0489 133.925 88.0974 133.224
RightUpLeg  -2.21354 -6.04544 -2.36505
RightLeg  5.96582 10.3997 -0.486247
RightFoot  -3.22764 0.0303583 -0.834227
RightToes  3.49245e-010 0 -3.6325e-017
Spine  -1.5974 0.892168 3.12028
Spine1  6.06123 1.50531 -2.73918
HEad  -20.1515 -2.30422 -2.9487
LeftShoulder1  -0.547866 4.91601 -32.6474
LeftArm  6.96747 6.76528 -42.2524
LeftForeArm  28.3629 -15.2045 -7.54344
LeftHand  -0.0288993 7.59694 0.615608
RightShoulder  -0.9647 -6.20341 29.1748
RightArm  15.9888 -2.46118 47.6796
RightForeArm  17.6797 12.592 6.32028
RightHand  0.0441443 5.32901 0.158057
LeftUpLeg  1.92217 5.86847 1.24205
LeftLeg  2.24509 2.53084 0.407085
LeftFoot  -2.5419 -0.115847 1.81818
LeftToes  -5.6298e-010 8.41567e-011 -1.83319e-011
